<svg width="50" height="50" viewBox="0 0 50 50" fill="none" xmlns="http://www.w3.org/2000/svg">
<path d="M10.4164 41.6667V22.6167L6.38516 25.7208L5.12891 24.0708L24.9997 8.85417L44.8706 24.0708L43.6143 25.7083L39.5831 22.6167V41.6667H10.4164ZM16.6664 30.7708C16.2359 30.7708 15.8609 30.6111 15.5414 30.2917C15.222 29.9722 15.0622 29.5972 15.0622 29.1667C15.0622 28.7361 15.222 28.3611 15.5414 28.0417C15.8609 27.7222 16.2359 27.5625 16.6664 27.5625C17.097 27.5625 17.472 27.7222 17.7914 28.0417C18.1109 28.3611 18.2706 28.7361 18.2706 29.1667C18.2706 29.5972 18.1109 29.9722 17.7914 30.2917C17.472 30.6111 17.097 30.7708 16.6664 30.7708ZM24.9997 30.7708C24.5692 30.7708 24.1942 30.6111 23.8747 30.2917C23.5553 29.9722 23.3956 29.5972 23.3956 29.1667C23.3956 28.7361 23.5553 28.3611 23.8747 28.0417C24.1942 27.7222 24.5692 27.5625 24.9997 27.5625C25.4303 27.5625 25.8053 27.7222 26.1247 28.0417C26.4442 28.3611 26.6039 28.7361 26.6039 29.1667C26.6039 29.5972 26.4442 29.9722 26.1247 30.2917C25.8053 30.6111 25.4303 30.7708 24.9997 30.7708ZM33.3331 30.7708C32.9025 30.7708 32.5275 30.6111 32.2081 30.2917C31.8886 29.9722 31.7289 29.5972 31.7289 29.1667C31.7289 28.7361 31.8886 28.3611 32.2081 28.0417C32.5275 27.7222 32.9025 27.5625 33.3331 27.5625C33.7636 27.5625 34.1386 27.7222 34.4581 28.0417C34.7775 28.3611 34.9372 28.7361 34.9372 29.1667C34.9372 29.5972 34.7775 29.9722 34.4581 30.2917C34.1386 30.6111 33.7636 30.7708 33.3331 30.7708Z" fill="#CDA274"/>
</svg>
